<svg id="Layer_1" data-name="Layer 1" xmlns="http://www.w3.org/2000/svg" viewBox="0 0 52.18 52.18"><title>icon-facebook</title><g id="facebook_square" data-name="facebook square"><path d="M272,223.91H227.1a3.62,3.62,0,0,0-3.62,3.62v44.94a3.62,3.62,0,0,0,3.62,3.62H272a3.62,3.62,0,0,0,3.62-3.62V227.53A3.62,3.62,0,0,0,272,223.91Zm-5.42,28.46h-7.1v19h-7.24v-19h-5v-6.84h5v-5.84c0-4.59,3-8.81,9.81-8.81a41.53,41.53,0,0,1,4.82.27l-0.16,6.39s-2.09,0-4.37,0c-2.47,0-2.86,1.14-2.86,3v5H267Z" transform="translate(-223.48 -223.91)"/></g></svg>
