<svg id="Layer_1" data-name="Layer 1" xmlns="http://www.w3.org/2000/svg" viewBox="0 0 52.81 52.81"><title>icon-instagram</title><g id="instagram"><path d="M1038.59,513.6H993.1a3.67,3.67,0,0,0-3.66,3.66v45.49a3.67,3.67,0,0,0,3.66,3.66h45.49a3.67,3.67,0,0,0,3.66-3.66V517.26A3.66,3.66,0,0,0,1038.59,513.6Zm-22.74,16.54a10.08,10.08,0,1,1-10.08,10.08A10.08,10.08,0,0,1,1015.85,530.14Zm20.28,29a1.7,1.7,0,0,1-1.7,1.7H997.27a1.71,1.71,0,0,1-1.7-1.7V538.51h3.76a15.72,15.72,0,0,0-.11,1.71,16.63,16.63,0,1,0,33.27,0,15.72,15.72,0,0,0-.11-1.71h3.76v20.67Zm0.31-30.87a0.65,0.65,0,0,1-.65.65h-8.08a0.65,0.65,0,0,1-.65-0.65v-8.08a0.65,0.65,0,0,1,.65-0.65h8.08a0.65,0.65,0,0,1,.65.65v8.08Z" transform="translate(-989.44 -513.6)"/></g></svg>
