<svg id="Layer_1" data-name="Layer 1" xmlns="http://www.w3.org/2000/svg" viewBox="0 0 52.16 52.16"><title>icon-linkedin</title><g id="linkedin_square" data-name="linkedin square"><path d="M1154.58,513.92h-44.93a3.62,3.62,0,0,0-3.62,3.62v44.93a3.62,3.62,0,0,0,3.62,3.62h44.93a3.62,3.62,0,0,0,3.62-3.62V517.53A3.62,3.62,0,0,0,1154.58,513.92Zm-32.67,43.47h-7.85V532.14h7.85v25.25Zm-4-28.35a3.93,3.93,0,1,1,4.23-3.92A3.91,3.91,0,0,1,1117.94,529Zm32.43,28.35h-7.85v-14c0-3.25-1.14-5.47-4-5.47a4.31,4.31,0,0,0-4,2.94,5.66,5.66,0,0,0-.26,2v14.56h-7.85V540.2c0-3.15-.1-5.78-0.21-8.06H1133l0.36,3.51h0.15a9.07,9.07,0,0,1,7.8-4.08c5.16,0,9,3.46,9,10.9v14.93Z" transform="translate(-1106.03 -513.92)"/></g></svg>
