<svg id="Layer_1" data-name="Layer 1" xmlns="http://www.w3.org/2000/svg" viewBox="0 0 62.1 50.47"><title>icon-twitter</title><g id="twitter"><path d="M280.35,230.74a25.47,25.47,0,0,1-7.32,2,12.78,12.78,0,0,0,5.6-7,25.53,25.53,0,0,1-8.09,3.09,12.75,12.75,0,0,0-21.71,11.62,36.17,36.17,0,0,1-26.26-13.31,12.75,12.75,0,0,0,3.94,17,12.68,12.68,0,0,1-5.77-1.59c0,0.05,0,.11,0,0.16A12.75,12.75,0,0,0,231,255.17a12.73,12.73,0,0,1-5.75.22,12.75,12.75,0,0,0,11.9,8.85,25.56,25.56,0,0,1-15.82,5.45,26,26,0,0,1-3-.18,36,36,0,0,0,19.53,5.72c23.43,0,36.25-19.41,36.25-36.25,0-.55,0-1.1,0-1.65A25.91,25.91,0,0,0,280.35,230.74Z" transform="translate(-218.25 -224.77)"/></g></svg>
